<?xml version="1.0" standalone="no"?><!DOCTYPE svg PUBLIC "-//W3C//DTD SVG 1.1//EN" "http://www.w3.org/Graphics/SVG/1.1/DTD/svg11.dtd"><svg t="1569074323872" class="icon" viewBox="0 0 1024 1024" version="1.1" xmlns="http://www.w3.org/2000/svg" p-id="5086" width="100" height="100" xmlns:xlink="http://www.w3.org/1999/xlink"><defs><style type="text/css"></style></defs><path d="M905.1 505.7c-4.3-218-184.6-391.2-402.6-386.9S111.2 303.4 115.6 521.4s184.6 391.2 402.6 386.9 391.2-184.6 386.9-402.6zM740.5 636.1c-8.3 8.3-21.8 8.3-30 0L510.3 435.9 310.2 636.1c-8.3 8.3-21.8 8.3-30 0-8.3-8.3-8.3-21.8 0-30l215-215c4.2-4.2 9.7-6.2 15.2-6.2s11 2 15.2 6.2l215 215c8.2 8.2 8.2 21.7-0.1 30z" fill="#8a8a8a" p-id="5087" data-spm-anchor-id="a313x.7781069.0.i1" class="selected"></path></svg>